<svg xmlns="http://www.w3.org/2000/svg" version="1.1" xmlns:xlink="http://www.w3.org/1999/xlink" xmlns:svgjs="http://svgjs.dev/svgjs" width="1000" height="1000"><style>
    #light-icon {
      display: inline;
    }
    #dark-icon {
      display: none;
    }

    @media (prefers-color-scheme: dark) {
      #light-icon {
        display: none;
      }
      #dark-icon {
        display: inline;
      }
    }
  </style><g id="light-icon"><svg xmlns="http://www.w3.org/2000/svg" version="1.1" xmlns:xlink="http://www.w3.org/1999/xlink" xmlns:svgjs="http://svgjs.dev/svgjs" width="1000" height="1000"><g><g transform="matrix(7.407407407407407,0,0,7.407407407407407,135.05218297463875,-46.77771109121818)"><svg xmlns="http://www.w3.org/2000/svg" version="1.1" xmlns:xlink="http://www.w3.org/1999/xlink" xmlns:svgjs="http://svgjs.dev/svgjs" width="110" height="135"><svg xmlns="http://www.w3.org/2000/svg" version="1.1" viewBox="-5.0 -10.0 110.0 135.0">
 <path d="m84.613 34.77c-1.082-0.46875-2.1797-0.92188-3.3086-1.2461-6.8438-1.957-13.004-5.3203-18.844-9.2812-1.3086-0.88672-2.6055-2.2656-3.168-3.707-3.0039-7.7188-8.6914-12.156-16.594-13.727-8.0117-1.5938-15.211 0.625-21.391 5.8242-6.4922 5.4609-8.9414 12.918-9.3516 21.078-0.37891 7.5977-0.43359 15.207-0.54297 22.816-0.10156 7.0391 0.082032 14.09-0.19922 21.121-0.14844 3.7109-1.0781 7.3867-1.5117 11.094-0.39062 2.7891 3.9297 3.2969 4.1953 0.49219 0.046874-0.41406 0.10547-0.82812 0.16406-1.2422 0.058594-0.41406 0.125-0.82813 0.19141-1.2383 0.078125-0.48828 0.16016-0.97266 0.24219-1.4609 0.082031-0.48828 0.16406-0.97266 0.24609-1.4609 0.078124-0.47266 0.15234-0.94531 0.22266-1.418 0.070312-0.47266 0.13672-0.94531 0.19531-1.4219 0.0625-0.5 0.11719-1 0.16016-1.5039 0.023438-0.25 0.042969-0.50391 0.058594-0.75391s0.03125-0.50391 0.042969-0.75391c0.019531-0.42578 0.035156-0.84766 0.046875-1.2734 0.015625-0.42578 0.027344-0.84766 0.039062-1.2734 0.011719-0.42578 0.019532-0.84766 0.03125-1.2734 0.007813-0.42578 0.015626-0.84766 0.023438-1.2734 0.011719-0.85938 0.023438-1.7188 0.027344-2.5781 0.003906-0.42969 0.003906-0.85938 0.007812-1.2891 0-0.42969 0.003906-0.85938 0.003906-1.2891v-2.7852c0-0.92969-0.003906-1.8594 0-2.7852 0-1.8594 0.007813-3.7148 0.035157-5.5742 0.089843-6.1523 0.14062-12.305 0.35938-18.453 0.027344-0.71875 0.054687-1.4336 0.082031-2.1523 0.03125-0.71484 0.0625-1.4336 0.10156-2.1484 0.011718-0.1875 0.019531-0.375 0.03125-0.5625 0.011718-0.1875 0.027343-0.375 0.039062-0.5625 0.03125-0.36719 0.0625-0.73047 0.10156-1.0977 0.039063-0.36328 0.082032-0.73047 0.13281-1.0938 0.19141-1.3906 0.46875-2.7695 0.85547-4.1172 0.36719-1.2812 0.82812-2.5391 1.4062-3.7383 0.56641-1.1797 1.2422-2.3086 2.0234-3.3555 0.8125-1.0938 1.7422-2.1016 2.7578-3.0078 0.26562-0.23828 0.53906-0.46875 0.81641-0.69531 0.27344-0.22266 0.54688-0.44141 0.82812-0.65234 0.54297-0.41016 1.1016-0.80078 1.6797-1.168 1.0898-0.69531 2.2383-1.3008 3.4375-1.793 1.1484-0.47266 2.3398-0.83984 3.5586-1.0859 1.2266-0.25 2.4805-0.375 3.7344-0.37891 0.66797-0.003907 1.332 0.027343 1.9961 0.089843s1.3242 0.15625 1.9805 0.27734 1.3086 0.26953 1.9531 0.44531c0.64453 0.17578 1.2812 0.37891 1.9062 0.61328 0.5625 0.21094 1.1172 0.45312 1.6602 0.71875 0.53906 0.26562 1.0664 0.5625 1.5781 0.88281 0.97266 0.61719 1.8789 1.3398 2.6914 2.1562 0.058594 0.058594 0.12109 0.12109 0.17969 0.18359 1.1055 1.1445 1.7734 2.3672 2.1406 3.9141 1.3516 5.6875 0.79688 11.656-1.5742 16.996-1.0703 2.4102-3.2031 4.1797-5.7695 4.7891-0.84375 0.19922-1.6875 0.40234-2.5312 0.60547-0.86719 0.20703-1.7383 0.41797-2.6094 0.62109-0.84766 0.19922-1.6953 0.39844-2.543 0.59766-0.19922 0.84766-0.40234 1.6953-0.60156 2.543-0.089843 0.37891-0.1875 0.75391-0.28516 1.1289-0.14062 0.53125-0.28125 1.0625-0.42188 1.5977-0.1875 0.71875-0.37109 1.4414-0.53516 2.168-0.11719 0.52734-0.22656 1.0586-0.32422 1.5898-0.050781 0.27344-0.09375 0.55078-0.13672 0.82812-0.039063 0.26562-0.074219 0.53125-0.10547 0.79688-0.11328 0.97656-0.15234 1.9609-0.125 2.9414 0.027343 0.94922 0.12109 1.8984 0.27344 2.8359 0.20312 1.2461 0.51172 2.4766 0.90625 3.6758 0.28125 0.85547 0.60156 1.6953 0.95703 2.5195 0.34766 0.80469 0.73047 1.5977 1.1367 2.375 0.70703 1.3516 1.3945 2.7109 2.0508 4.0859 0.64062 1.3477 1.2539 2.707 1.8203 4.0898 0.27734 0.67578 0.54688 1.3594 0.80078 2.043 0.25391 0.6875 0.49609 1.375 0.72266 2.0703 0.22266 0.6875 0.43359 1.3789 0.62891 2.0742 0.19531 0.69531 0.375 1.3945 0.53516 2.1016 0.058594 0.25391 0.11328 0.51172 0.16016 0.76562 0.046875 0.25781 0.089844 0.51562 0.125 0.77344 0.039063 0.27734 0.078125 0.55078 0.10938 0.82812s0.058594 0.55469 0.085938 0.83203c0.027343 0.29297 0.050781 0.58984 0.070312 0.88281 0.019531 0.29297 0.039063 0.58984 0.054688 0.88281 0.035156 0.61719 0.0625 1.2383 0.09375 1.8555 0.003906 2.8164 4.4727 2.6133 4.2227-0.19141-0.11719-2.5352-0.23828-5.1133-0.80469-7.5742-1.4102-6.1641-4.0078-11.883-6.9336-17.477-1.9805-3.7891-3.2383-7.8555-2.6602-12.188 0.34766-2.6133 1.1719-5.1602 1.6875-7.3398 3.7031-0.87109 6.8789-1.6758 10.086-2.3438 1.4648-0.30469 3.0586-0.69531 4.4766-0.42578 5.9961 1.1328 11.945 2.832 18.109 1.8281 3.3984-0.55469 6.7695-1.4688 10.043-2.543 1.918-0.62891 2.7852-2.3828 2.6758-4.4883-0.10937-2.0039-1.1055-3.3984-2.9258-4.1875zm-1.3047 4.7422c-1.6719 0.54297-3.3594 1.0391-5.0625 1.4609-0.83594 0.20703-1.6797 0.39844-2.5234 0.5625-0.42188 0.082032-0.84375 0.16016-1.2656 0.23438-0.23438 0.039063-0.46484 0.078125-0.69922 0.10938-0.69141 0.097656-1.3867 0.15625-2.0859 0.17969-0.71484 0.023437-1.4258 0.011718-2.1406-0.023438-0.73828-0.039062-1.4766-0.10938-2.2109-0.19922-0.76562-0.09375-1.5273-0.21094-2.2852-0.33984-0.78906-0.13672-1.5781-0.28516-2.3672-0.44141-0.46484-0.09375-0.92969-0.1875-1.3906-0.28125-0.46484-0.09375-0.92578-0.19141-1.3906-0.28516-0.21094-0.042969-0.42188-0.085937-0.62891-0.12891-0.21094-0.042969-0.42187-0.085937-0.62891-0.125-0.19922-0.039063-0.39844-0.078125-0.59766-0.11719-0.19922-0.039063-0.39844-0.078126-0.60156-0.11328-0.17969-0.03125-0.35938-0.058594-0.53906-0.082031s-0.36328-0.039063-0.54297-0.050781c-0.34375-0.019532-0.6875-0.027344-1.0312-0.015625 2.1484-4.2734 3.1953-8.4961 3.2891-13.277 0.03125 0.03125 0.066406 0.058594 0.10156 0.089844 0.33203 0.28906 0.67578 0.56641 1.0312 0.82422 0.089844 0.0625 0.17578 0.125 0.26562 0.1875 0.125 0.085937 0.25 0.16797 0.375 0.25391 0.28516 0.19141 0.57031 0.38281 0.85938 0.57031 1.1523 0.76172 2.3164 1.4961 3.5 2.207 1.1914 0.71484 2.3984 1.3984 3.625 2.0508 1.2383 0.65625 2.4922 1.2773 3.7695 1.8555 1.2891 0.58594 2.5977 1.1289 3.9258 1.6211 1.3477 0.5 2.7109 0.95312 4.0938 1.3477 0.32812 0.09375 0.64844 0.20312 0.96875 0.32031 0.35547 0.12891 0.71094 0.26953 1.0625 0.41797 0.1875 0.078125 0.375 0.15625 0.5625 0.23828 0.082031 0.035156 0.16016 0.070312 0.24219 0.10547 0.039063 0.019531 0.078125 0.039062 0.11719 0.058593 0.042969 0.023438 0.085937 0.050782 0.125 0.078126 0.011719 0.007812 0.023437 0.019531 0.035156 0.027343 0.007813 0.011719 0.011719 0.027344 0.015625 0.039063 0.003906 0.015625 0.007812 0.03125 0.011719 0.046875 0.007812 0.027343 0.011719 0.058593 0.015625 0.089843 0.011718 0.089844 0.019531 0.17969 0.019531 0.27344-0.007813 0.078125-0.011719 0.15234-0.019531 0.23047z"></path>
 <path d="m46.195 25.426c1.1992-1.1719 1.2188-3.0938 0.050782-4.293-1.1719-1.1992-3.0938-1.2188-4.293-0.050781-1.1992 1.1719-1.2188 3.0938-0.050781 4.293 1.1758 1.2031 3.0938 1.2227 4.293 0.050781z"></path>
<text x="0.0" y="117.5" font-size="5.0" font-weight="bold" font-family="Arbeit Regular, Helvetica, Arial-Unicode, Arial, Sans-serif" fill="#000000" svgjs:data="{&quot;leading&quot;:&quot;1.3&quot;}">Created by jisangbong</text><text x="0.0" y="122.5" font-size="5.0" font-weight="bold" font-family="Arbeit Regular, Helvetica, Arial-Unicode, Arial, Sans-serif" fill="#000000" svgjs:data="{&quot;leading&quot;:&quot;1.3&quot;}">from Noun Project</text></svg></svg></g></g></svg></g><g id="dark-icon"><svg xmlns="http://www.w3.org/2000/svg" version="1.1" xmlns:xlink="http://www.w3.org/1999/xlink" xmlns:svgjs="http://svgjs.dev/svgjs" width="1000" height="1000"><g clip-path="url(#SvgjsClipPath1001)"><rect width="1000" height="1000" fill="#ffffff"></rect><g transform="matrix(5.185185185185185,0,0,5.185185185185185,242.5485357001976,119.44577252423323)"><svg xmlns="http://www.w3.org/2000/svg" version="1.1" xmlns:xlink="http://www.w3.org/1999/xlink" xmlns:svgjs="http://svgjs.dev/svgjs" width="110" height="135"><svg xmlns="http://www.w3.org/2000/svg" version="1.1" viewBox="-5.0 -10.0 110.0 135.0">
 <path d="m84.613 34.77c-1.082-0.46875-2.1797-0.92188-3.3086-1.2461-6.8438-1.957-13.004-5.3203-18.844-9.2812-1.3086-0.88672-2.6055-2.2656-3.168-3.707-3.0039-7.7188-8.6914-12.156-16.594-13.727-8.0117-1.5938-15.211 0.625-21.391 5.8242-6.4922 5.4609-8.9414 12.918-9.3516 21.078-0.37891 7.5977-0.43359 15.207-0.54297 22.816-0.10156 7.0391 0.082032 14.09-0.19922 21.121-0.14844 3.7109-1.0781 7.3867-1.5117 11.094-0.39062 2.7891 3.9297 3.2969 4.1953 0.49219 0.046874-0.41406 0.10547-0.82812 0.16406-1.2422 0.058594-0.41406 0.125-0.82813 0.19141-1.2383 0.078125-0.48828 0.16016-0.97266 0.24219-1.4609 0.082031-0.48828 0.16406-0.97266 0.24609-1.4609 0.078124-0.47266 0.15234-0.94531 0.22266-1.418 0.070312-0.47266 0.13672-0.94531 0.19531-1.4219 0.0625-0.5 0.11719-1 0.16016-1.5039 0.023438-0.25 0.042969-0.50391 0.058594-0.75391s0.03125-0.50391 0.042969-0.75391c0.019531-0.42578 0.035156-0.84766 0.046875-1.2734 0.015625-0.42578 0.027344-0.84766 0.039062-1.2734 0.011719-0.42578 0.019532-0.84766 0.03125-1.2734 0.007813-0.42578 0.015626-0.84766 0.023438-1.2734 0.011719-0.85938 0.023438-1.7188 0.027344-2.5781 0.003906-0.42969 0.003906-0.85938 0.007812-1.2891 0-0.42969 0.003906-0.85938 0.003906-1.2891v-2.7852c0-0.92969-0.003906-1.8594 0-2.7852 0-1.8594 0.007813-3.7148 0.035157-5.5742 0.089843-6.1523 0.14062-12.305 0.35938-18.453 0.027344-0.71875 0.054687-1.4336 0.082031-2.1523 0.03125-0.71484 0.0625-1.4336 0.10156-2.1484 0.011718-0.1875 0.019531-0.375 0.03125-0.5625 0.011718-0.1875 0.027343-0.375 0.039062-0.5625 0.03125-0.36719 0.0625-0.73047 0.10156-1.0977 0.039063-0.36328 0.082032-0.73047 0.13281-1.0938 0.19141-1.3906 0.46875-2.7695 0.85547-4.1172 0.36719-1.2812 0.82812-2.5391 1.4062-3.7383 0.56641-1.1797 1.2422-2.3086 2.0234-3.3555 0.8125-1.0938 1.7422-2.1016 2.7578-3.0078 0.26562-0.23828 0.53906-0.46875 0.81641-0.69531 0.27344-0.22266 0.54688-0.44141 0.82812-0.65234 0.54297-0.41016 1.1016-0.80078 1.6797-1.168 1.0898-0.69531 2.2383-1.3008 3.4375-1.793 1.1484-0.47266 2.3398-0.83984 3.5586-1.0859 1.2266-0.25 2.4805-0.375 3.7344-0.37891 0.66797-0.003907 1.332 0.027343 1.9961 0.089843s1.3242 0.15625 1.9805 0.27734 1.3086 0.26953 1.9531 0.44531c0.64453 0.17578 1.2812 0.37891 1.9062 0.61328 0.5625 0.21094 1.1172 0.45312 1.6602 0.71875 0.53906 0.26562 1.0664 0.5625 1.5781 0.88281 0.97266 0.61719 1.8789 1.3398 2.6914 2.1562 0.058594 0.058594 0.12109 0.12109 0.17969 0.18359 1.1055 1.1445 1.7734 2.3672 2.1406 3.9141 1.3516 5.6875 0.79688 11.656-1.5742 16.996-1.0703 2.4102-3.2031 4.1797-5.7695 4.7891-0.84375 0.19922-1.6875 0.40234-2.5312 0.60547-0.86719 0.20703-1.7383 0.41797-2.6094 0.62109-0.84766 0.19922-1.6953 0.39844-2.543 0.59766-0.19922 0.84766-0.40234 1.6953-0.60156 2.543-0.089843 0.37891-0.1875 0.75391-0.28516 1.1289-0.14062 0.53125-0.28125 1.0625-0.42188 1.5977-0.1875 0.71875-0.37109 1.4414-0.53516 2.168-0.11719 0.52734-0.22656 1.0586-0.32422 1.5898-0.050781 0.27344-0.09375 0.55078-0.13672 0.82812-0.039063 0.26562-0.074219 0.53125-0.10547 0.79688-0.11328 0.97656-0.15234 1.9609-0.125 2.9414 0.027343 0.94922 0.12109 1.8984 0.27344 2.8359 0.20312 1.2461 0.51172 2.4766 0.90625 3.6758 0.28125 0.85547 0.60156 1.6953 0.95703 2.5195 0.34766 0.80469 0.73047 1.5977 1.1367 2.375 0.70703 1.3516 1.3945 2.7109 2.0508 4.0859 0.64062 1.3477 1.2539 2.707 1.8203 4.0898 0.27734 0.67578 0.54688 1.3594 0.80078 2.043 0.25391 0.6875 0.49609 1.375 0.72266 2.0703 0.22266 0.6875 0.43359 1.3789 0.62891 2.0742 0.19531 0.69531 0.375 1.3945 0.53516 2.1016 0.058594 0.25391 0.11328 0.51172 0.16016 0.76562 0.046875 0.25781 0.089844 0.51562 0.125 0.77344 0.039063 0.27734 0.078125 0.55078 0.10938 0.82812s0.058594 0.55469 0.085938 0.83203c0.027343 0.29297 0.050781 0.58984 0.070312 0.88281 0.019531 0.29297 0.039063 0.58984 0.054688 0.88281 0.035156 0.61719 0.0625 1.2383 0.09375 1.8555 0.003906 2.8164 4.4727 2.6133 4.2227-0.19141-0.11719-2.5352-0.23828-5.1133-0.80469-7.5742-1.4102-6.1641-4.0078-11.883-6.9336-17.477-1.9805-3.7891-3.2383-7.8555-2.6602-12.188 0.34766-2.6133 1.1719-5.1602 1.6875-7.3398 3.7031-0.87109 6.8789-1.6758 10.086-2.3438 1.4648-0.30469 3.0586-0.69531 4.4766-0.42578 5.9961 1.1328 11.945 2.832 18.109 1.8281 3.3984-0.55469 6.7695-1.4688 10.043-2.543 1.918-0.62891 2.7852-2.3828 2.6758-4.4883-0.10937-2.0039-1.1055-3.3984-2.9258-4.1875zm-1.3047 4.7422c-1.6719 0.54297-3.3594 1.0391-5.0625 1.4609-0.83594 0.20703-1.6797 0.39844-2.5234 0.5625-0.42188 0.082032-0.84375 0.16016-1.2656 0.23438-0.23438 0.039063-0.46484 0.078125-0.69922 0.10938-0.69141 0.097656-1.3867 0.15625-2.0859 0.17969-0.71484 0.023437-1.4258 0.011718-2.1406-0.023438-0.73828-0.039062-1.4766-0.10938-2.2109-0.19922-0.76562-0.09375-1.5273-0.21094-2.2852-0.33984-0.78906-0.13672-1.5781-0.28516-2.3672-0.44141-0.46484-0.09375-0.92969-0.1875-1.3906-0.28125-0.46484-0.09375-0.92578-0.19141-1.3906-0.28516-0.21094-0.042969-0.42188-0.085937-0.62891-0.12891-0.21094-0.042969-0.42187-0.085937-0.62891-0.125-0.19922-0.039063-0.39844-0.078125-0.59766-0.11719-0.19922-0.039063-0.39844-0.078126-0.60156-0.11328-0.17969-0.03125-0.35938-0.058594-0.53906-0.082031s-0.36328-0.039063-0.54297-0.050781c-0.34375-0.019532-0.6875-0.027344-1.0312-0.015625 2.1484-4.2734 3.1953-8.4961 3.2891-13.277 0.03125 0.03125 0.066406 0.058594 0.10156 0.089844 0.33203 0.28906 0.67578 0.56641 1.0312 0.82422 0.089844 0.0625 0.17578 0.125 0.26562 0.1875 0.125 0.085937 0.25 0.16797 0.375 0.25391 0.28516 0.19141 0.57031 0.38281 0.85938 0.57031 1.1523 0.76172 2.3164 1.4961 3.5 2.207 1.1914 0.71484 2.3984 1.3984 3.625 2.0508 1.2383 0.65625 2.4922 1.2773 3.7695 1.8555 1.2891 0.58594 2.5977 1.1289 3.9258 1.6211 1.3477 0.5 2.7109 0.95312 4.0938 1.3477 0.32812 0.09375 0.64844 0.20312 0.96875 0.32031 0.35547 0.12891 0.71094 0.26953 1.0625 0.41797 0.1875 0.078125 0.375 0.15625 0.5625 0.23828 0.082031 0.035156 0.16016 0.070312 0.24219 0.10547 0.039063 0.019531 0.078125 0.039062 0.11719 0.058593 0.042969 0.023438 0.085937 0.050782 0.125 0.078126 0.011719 0.007812 0.023437 0.019531 0.035156 0.027343 0.007813 0.011719 0.011719 0.027344 0.015625 0.039063 0.003906 0.015625 0.007812 0.03125 0.011719 0.046875 0.007812 0.027343 0.011719 0.058593 0.015625 0.089843 0.011718 0.089844 0.019531 0.17969 0.019531 0.27344-0.007813 0.078125-0.011719 0.15234-0.019531 0.23047z"></path>
 <path d="m46.195 25.426c1.1992-1.1719 1.2188-3.0938 0.050782-4.293-1.1719-1.1992-3.0938-1.2188-4.293-0.050781-1.1992 1.1719-1.2188 3.0938-0.050781 4.293 1.1758 1.2031 3.0938 1.2227 4.293 0.050781z"></path>
<text x="0.0" y="117.5" font-size="5.0" font-weight="bold" font-family="Arbeit Regular, Helvetica, Arial-Unicode, Arial, Sans-serif" fill="#000000" svgjs:data="{&quot;leading&quot;:&quot;1.3&quot;}">Created by jisangbong</text><text x="0.0" y="122.5" font-size="5.0" font-weight="bold" font-family="Arbeit Regular, Helvetica, Arial-Unicode, Arial, Sans-serif" fill="#000000" svgjs:data="{&quot;leading&quot;:&quot;1.3&quot;}">from Noun Project</text></svg></svg></g></g><defs><clipPath id="SvgjsClipPath1001"><rect width="1000" height="1000" x="0" y="0" rx="350" ry="350"></rect></clipPath></defs></svg></g></svg>